<?xml version="1.0" encoding="UTF-8" standalone="no"?>
<!-- Created with Inkscape (http://www.inkscape.org/) -->
<svg
   xmlns:dc="http://purl.org/dc/elements/1.1/"
   xmlns:cc="http://creativecommons.org/ns#"
   xmlns:rdf="http://www.w3.org/1999/02/22-rdf-syntax-ns#"
   xmlns:svg="http://www.w3.org/2000/svg"
   xmlns="http://www.w3.org/2000/svg"
   xmlns:xlink="http://www.w3.org/1999/xlink"
   xmlns:sodipodi="http://sodipodi.sourceforge.net/DTD/sodipodi-0.dtd"
   xmlns:inkscape="http://www.inkscape.org/namespaces/inkscape"
   width="744.09448819"
   height="1052.3622047"
   id="svg2"
   sodipodi:version="0.32"
   inkscape:version="0.46"
   sodipodi:docname="yadog.svg"
   inkscape:output_extension="org.inkscape.output.svg.inkscape">
  <defs
     id="defs4">
    <inkscape:perspective
       sodipodi:type="inkscape:persp3d"
       inkscape:vp_x="0 : 526.18109 : 1"
       inkscape:vp_y="0 : 1000 : 0"
       inkscape:vp_z="744.09448 : 526.18109 : 1"
       inkscape:persp3d-origin="372.04724 : 350.78739 : 1"
       id="perspective10" />
    <inkscape:perspective
       id="perspective2390"
       inkscape:persp3d-origin="372.04724 : 350.78739 : 1"
       inkscape:vp_z="744.09448 : 526.18109 : 1"
       inkscape:vp_y="0 : 1000 : 0"
       inkscape:vp_x="0 : 526.18109 : 1"
       sodipodi:type="inkscape:persp3d" />
  </defs>
  <sodipodi:namedview
     id="base"
     pagecolor="#ffffff"
     bordercolor="#666666"
     borderopacity="1.0"
     gridtolerance="10000"
     guidetolerance="10"
     objecttolerance="10"
     inkscape:pageopacity="0.0"
     inkscape:pageshadow="2"
     inkscape:zoom="0.84856717"
     inkscape:cx="360.40501"
     inkscape:cy="786.83945"
     inkscape:document-units="px"
     inkscape:current-layer="layer2"
     showgrid="false"
     inkscape:window-width="1600"
     inkscape:window-height="1125"
     inkscape:window-x="0"
     inkscape:window-y="25" />
  <metadata
     id="metadata7">
    <rdf:RDF>
      <cc:Work
         rdf:about="">
        <dc:format>image/svg+xml</dc:format>
        <dc:type
           rdf:resource="http://purl.org/dc/dcmitype/StillImage" />
      </cc:Work>
    </rdf:RDF>
  </metadata>
  <g
     inkscape:label="Layer 1"
     inkscape:groupmode="layer"
     id="layer1"
     style="display:none">
    <image
       y="-325.81891"
       x="-763.95276"
       id="image2392"
       height="1704"
       width="2272"
       sodipodi:absref="/home/stone/Desktop/yadog.jpg"
       xlink:href="Desktop/yadog.jpg" />
  </g>
  <g
     inkscape:groupmode="layer"
     id="layer2"
     inkscape:label="brushes"
     style="display:inline">
    <path
       style="fill:#28170b;fill-rule:evenodd;stroke:#000000;stroke-width:2;stroke-linecap:butt;stroke-linejoin:miter;stroke-opacity:1;stroke-miterlimit:4;stroke-dasharray:none"
       d="M 737.12491,105.47191 C 737.12491,105.47191 737.12491,111.36419 733.58954,116.07802 C 730.05417,120.79185 711.78808,113.13188 704.71734,121.97031 C 697.6466,130.80874 701.18197,132.57642 687.62971,147.30714 C 674.07746,162.03785 673.48823,153.78865 682.32666,174.41165 C 691.16508,195.03465 698.23583,182.66085 712.37731,192.67773 C 726.5188,202.69462 733.00031,197.98079 738.30337,191.49928 C 743.60643,185.01776 756.56945,172.64396 757.15868,162.03785 C 757.74791,151.43174 749.49871,149.66405 753.62331,145.53945 C 757.74791,141.41485 763.05097,126.68414 760.10482,121.38108 C 757.15868,116.07802 739.48183,104.88268 737.12491,105.47191 z"
       id="path2405" />
    <path
       style="fill:#502d16;fill-rule:evenodd;stroke:#000000;stroke-width:2;stroke-linecap:butt;stroke-linejoin:miter;stroke-opacity:1;stroke-miterlimit:4;stroke-dasharray:none"
       d="M 649.91909,143.77176 C 659.34674,155.55634 673.48823,156.73479 672.899,159.09171 C 672.30977,161.44862 671.72054,162.62708 671.72054,162.62708 C 671.72054,162.62708 661.70366,152.02096 646.97294,160.27016 C 632.24223,168.51936 616.33306,174.41165 630.47454,165.57322 C 644.61603,156.73479 651.68677,157.32402 650.50831,150.84251 C 649.32986,144.36099 649.91909,144.36099 649.91909,143.77176 z"
       id="path2407" />
    <path
       style="fill:#a05a2c;fill-rule:evenodd;stroke:#000000;stroke-width:2;stroke-linecap:butt;stroke-linejoin:miter;stroke-opacity:1;stroke-miterlimit:4;stroke-dasharray:none;fill-opacity:1"
       d="M 734.768,103.11499 C 599.83466,44.781369 609.85155,58.333625 588.05009,35.353712 C 566.24863,12.373799 552.69638,13.552256 581.56857,35.942941 C 610.44077,58.333625 604.54849,56.56594 604.54849,56.56594 C 604.54849,56.56594 568.60555,37.710626 649.91909,72.475111 C 731.23263,107.23959 735.94645,103.11499 734.768,103.11499 z"
       id="path2429" />
    <path
       style="fill:#a05a2c;fill-rule:evenodd;stroke:#000000;stroke-width:2;stroke-linecap:butt;stroke-linejoin:miter;stroke-opacity:1;stroke-miterlimit:4;stroke-dasharray:none;fill-opacity:1"
       d="M 570.37323,-5.892286 C 545.03641,-41.835227 510.27192,-58.333627 510.27192,-58.333627 C 510.27192,-58.333627 453.11675,-80.724311 407.15693,-78.956626 C 361.1971,-77.18894 283.41893,-51.262884 279.88356,-45.959827 C 276.34819,-40.65677 234.51296,9.4276562 232.15605,49.495197 C 229.79913,89.562738 228.03145,96.633481 230.97759,93.09811 C 233.92373,89.562738 246.88676,5.8922849 265.74207,-19.444543 C 284.59739,-44.78137 378.28473,-76.010483 411.28153,-73.653569 C 444.27832,-71.296655 517.34266,-60.101312 536.19798,-32.407571 C 555.05329,-4.7138289 570.96246,-4.7138289 570.37323,-5.892286 z"
       id="path2431" />
    <path
       style="fill:#a05a2c;fill-rule:evenodd;stroke:#000000;stroke-width:2;stroke-linecap:butt;stroke-linejoin:miter;stroke-opacity:1;stroke-miterlimit:4;stroke-dasharray:none;fill-opacity:1"
       d="M 226.85299,101.34731 C 158.50248,206.81922 116.66725,248.65445 127.27337,309.34499 C 137.87948,370.03553 120.20262,351.76944 153.78865,381.23087 C 187.37468,410.6923 219.78225,421.88764 229.2099,405.38924 C 238.63756,388.89084 245.7083,375.92781 233.92373,339.39564 C 222.13916,302.86347 233.92373,196.80233 248.65445,179.12548 C 263.38516,161.44862 206.22999,232.74528 207.99768,285.77584 C 209.76536,338.80641 216.24688,393.60467 191.49928,385.9447 C 166.75168,378.28473 134.34411,357.0725 134.93334,314.05881 C 135.52257,271.04513 157.91325,202.10539 185.01776,179.71471 C 212.12228,157.32402 227.44222,101.34731 226.85299,101.34731 z"
       id="path2433" />
    <path
       style="fill:#a05a2c;fill-rule:evenodd;stroke:#000000;stroke-width:2;stroke-linecap:butt;stroke-linejoin:miter;stroke-opacity:1;stroke-miterlimit:4;stroke-dasharray:none"
       d="M 745.96334,192.67773 C 715.91268,234.51296 724.16188,229.2099 696.46814,243.35139 C 668.7744,257.49287 606.31617,248.65445 589.81777,243.35139 C 573.31938,238.04833 509.68269,222.13916 497.30889,226.26376 C 484.93509,230.38836 494.95198,216.8361 503.79041,219.19302 C 512.62884,221.54993 632.83146,249.24367 653.45446,243.94062 C 674.07746,238.63756 683.50511,254.54673 721.80497,215.06842 C 760.10482,175.59011 746.55257,194.44542 745.96334,192.67773 z"
       id="path2435" />
    <path
       style="fill:#ff69bd;fill-rule:evenodd;stroke:#000000;stroke-width:1px;stroke-linecap:butt;stroke-linejoin:miter;stroke-opacity:1;fill-opacity:1"
       d="M 502.61195,227.44222 C 372.39244,324.0757 372.98167,324.0757 372.39244,324.0757 C 371.80321,324.0757 366.50016,340.5741 368.26784,362.96478 C 370.03553,385.35547 371.80321,387.12315 371.80321,387.12315 L 591.58546,506.14732 L 603.37003,497.30889 L 596.88852,494.36275 L 590.99623,498.48735 L 373.5709,382.40933 C 373.5709,382.40933 378.87396,369.4463 377.10627,350.00176 C 375.33858,330.55721 375.33858,330.55721 375.33858,330.55721 L 594.5316,451.93829 L 937.46262,157.32402 L 840.82914,116.66725 L 837.88299,120.20262 L 927.44573,159.09171 L 594.5316,441.92141 L 378.87396,324.0757 L 508.50424,228.62068 L 502.61195,227.44222 z"
       id="path2437" />
    <path
       style="fill:#c87137;fill-rule:evenodd;stroke:#000000;stroke-width:2;stroke-linecap:butt;stroke-linejoin:miter;stroke-opacity:1;stroke-miterlimit:4;stroke-dasharray:none"
       d="M 569.784,498.48735 C 587.46086,552.10715 583.92549,634.59914 572.73015,655.81137 C 561.5348,677.0236 562.12403,674.66668 555.64252,681.73743 C 549.161,688.80817 479.17023,777.24017 478.45358,778.96014 C 472.56129,793.10162 463.13364,840.2399 460.77673,856.7383 C 458.41981,873.2367 450.76879,930.90057 449.58138,941.58722 C 448.40292,952.19333 445.45678,953.96101 463.72287,973.99479 C 489.83114,1002.6297 493.18429,993.43933 499.07658,1010.527 C 504.96886,1027.6146 520.87803,1023.49 519.69958,1042.3453 C 518.52112,1061.2006 512.03961,1084.7698 501.43349,1087.7159 C 490.82738,1090.662 462.54441,1100.0897 459.00904,1090.0728 C 455.47367,1080.0559 461.95518,1094.1974 447.22447,1093.6082 C 432.49375,1093.019 414.8169,1092.4297 398.90773,1072.396 C 382.99855,1052.3622 367.67861,1044.7022 368.26784,1029.3823 C 368.85707,1014.0623 358.25096,995.20701 361.78633,924.49959 C 365.3217,853.79216 361.78633,875.00439 361.78633,875.00439 L 365.32169,840.82913 C 365.32169,840.82913 368.22511,927.61385 370.03553,965.15636 C 371.21398,989.59376 377.10627,1030.5608 377.6955,1037.6315 C 378.28474,1044.7023 415.40612,1083.5913 422.47687,1083.5913 C 429.54761,1083.5913 437.79681,1087.1267 438.97527,1087.1267 C 440.15372,1087.1267 453.70598,1081.8236 459.00904,1083.5913 C 464.31209,1085.359 487.88124,1090.0728 496.71966,1081.2344 C 505.55809,1072.396 518.52112,1045.8807 512.03961,1038.8099 C 505.55809,1031.7392 488.47046,1014.0623 486.70278,1009.3485 C 484.93509,1004.6347 434.26144,956.31793 438.38604,951.01487 C 442.51064,945.71182 457.83058,793.10162 474.91821,767.7648 C 479.71525,760.65194 554.46406,669.95286 563.89172,655.22214 C 573.31938,640.49143 575.67629,581.56858 574.49783,573.9086 C 573.31937,566.24863 564.48094,503.20118 560.94557,497.30889 C 556.60505,490.07468 569.784,499.07658 569.784,498.48735 z"
       id="path2439"
       sodipodi:nodetypes="cssssssssssssssccsssssssssssssc" />
    <path
       style="fill:#deaa87;fill-rule:evenodd;stroke:#000000;stroke-width:2;stroke-linecap:butt;stroke-linejoin:miter;stroke-opacity:1;stroke-miterlimit:4;stroke-dasharray:none"
       d="M 353.53713,844.95373 C 268.09899,893.8597 279.29433,871.46902 265.15285,900.93045 C 251.01136,930.39187 209.17613,978.11939 239.22679,1043.5238 C 269.27745,1108.9281 296.97119,1121.8912 294.61427,1142.5142 C 292.25736,1163.1371 305.80962,1176.1002 302.86347,1184.3494 C 299.91733,1192.5986 284.00816,1203.7939 281.65124,1198.4909 C 279.29433,1193.1878 292.84659,1202.0262 279.29433,1210.2754 C 265.74207,1218.5246 261.61747,1232.0769 243.35139,1222.06 C 225.0853,1212.0431 216.8361,1197.9016 218.01456,1192.0093 C 219.19302,1186.1171 213.30073,1205.5616 209.17613,1203.7939 C 205.05153,1202.0262 160.27016,1181.4032 156.14556,1164.3156 C 152.02096,1147.228 163.21631,1123.6588 149.66405,1108.9281 C 136.11179,1094.1974 101.93654,1078.2882 102.52577,1032.9176 C 103.115,987.54704 130.80874,916.25039 106.06114,900.93045 C 81.313539,885.6105 66.582826,900.93045 54.798255,856.73831 C 43.013684,812.54616 71.885883,783.08474 91.330425,773.06785 C 110.77497,763.05097 101.93654,764.22942 85.438139,781.31705 C 68.93974,798.40468 50.673655,824.33074 57.155169,837.29376 C 63.636683,850.25679 55.387483,877.3613 75.421254,883.84282 C 95.455024,890.32433 119.02417,887.96742 121.97031,909.76887 C 124.91645,931.57033 104.88268,1008.17 109.00728,1032.3284 C 113.13188,1056.4868 152.61019,1098.9112 157.32402,1107.7497 C 162.03785,1116.5881 164.98399,1140.7465 164.39476,1156.6556 C 163.80554,1172.5648 177.35779,1176.1002 191.49928,1185.5278 C 205.64076,1194.9555 198.57002,1154.8879 216.8361,1179.0463 C 235.10219,1203.2047 246.29753,1221.4708 250.42213,1219.1139 C 254.54673,1216.7569 283.41893,1210.8647 278.7051,1202.0262 C 273.99127,1193.1878 265.74207,1184.3494 275.75896,1187.2955 C 285.77584,1190.2417 294.61427,1190.8309 294.02504,1185.5278 C 293.43582,1180.2248 276.34819,1149.5849 279.88356,1140.1572 C 283.41893,1130.7296 229.2099,1069.4498 224.49608,1037.0422 C 219.78225,1004.6347 216.8361,965.74559 243.35139,921.55345 C 269.86667,877.3613 240.99448,879.71822 278.7051,866.75519 C 316.41573,853.79216 354.12636,844.95373 353.53713,844.95373 z"
       id="path2441" />
    <path
       style="fill:#c87137;fill-rule:evenodd;stroke:#000000;stroke-width:2;stroke-linecap:butt;stroke-linejoin:miter;stroke-opacity:1;stroke-miterlimit:4;stroke-dasharray:none"
       d="M 121.97031,306.98807 C 119.61339,307.5773 -65.993597,365.91093 -142.59331,450.17061 C -219.19302,534.43029 -213.30073,599.24543 -232.15605,606.9054 C -251.01136,614.56537 -294.02504,600.42389 -301.68502,613.38692 C -309.34499,626.34994 -362.96478,652.276 -371.21398,681.1482 C -379.46318,710.0204 -410.10307,753.03408 -375.33858,766.58634 C -340.5741,780.13859 -346.46639,790.15548 -319.9511,777.19245 C -293.43582,764.22942 -308.75576,794.28008 -334.68181,776.60322 C -360.60787,758.92637 -384.76624,767.17557 -380.05241,748.32025 C -375.33858,729.46494 -368.85707,675.84514 -353.53713,668.18517 C -338.21719,660.5252 -302.86347,613.97614 -293.43582,616.92229 C -284.00816,619.86843 -229.2099,621.63612 -219.78225,613.38692 C -210.35459,605.13772 -203.28385,514.39652 -137.87948,456.65212 C -72.475111,398.90773 38.299855,345.28793 45.959827,344.10947 C 53.619798,342.93101 122.55954,308.16653 121.97031,306.98807 z"
       id="path2443" />
    <path
       style="fill:#c87137;fill-rule:evenodd;stroke:#000000;stroke-width:2;stroke-linecap:butt;stroke-linejoin:miter;stroke-opacity:1;stroke-miterlimit:4;stroke-dasharray:none"
       d="M -221.54993,666.41748 C -209.76536,707.07425 -210.35459,722.3942 -228.03145,738.8926 C -245.7083,755.391 -263.38516,750.67717 -262.2067,774.24631 C -261.02825,797.81545 -251.01136,839.65068 -239.81602,854.38139 C -228.62068,869.1121 -216.24688,874.41516 -220.37148,916.83962 C -224.49608,959.26407 -227.44222,958.67484 -225.67453,961.03176 C -223.90685,963.38867 -210.94382,972.81633 -206.81922,966.33481 C -202.69462,959.8533 -212.12228,994.02856 -202.10539,1003.4562 C -192.08851,1012.8839 -187.96391,1022.3115 -185.01776,1015.2408 C -182.07162,1008.17 -190.91005,986.95781 -185.01776,995.79624 C -179.12548,1004.6347 -176.17934,1032.9176 -156.73479,1037.6315 C -137.29025,1042.3453 -153.78865,1011.1162 -142.00408,1017.5977 C -130.21951,1024.0792 -128.45182,1041.7561 -118.43494,1021.1331 C -108.41805,1000.5101 -109.00728,988.7255 -109.59651,958.67484 C -110.18574,928.62419 -107.82882,929.21342 -113.72111,918.01807 C -119.61339,906.82273 -167.93014,849.66756 -163.21631,841.41836 C -158.50248,833.16916 -161.44862,822.56305 -143.18254,830.22302 C -124.91645,837.88299 -102.52577,875.00439 -78.956625,876.77208 C -55.387483,878.53976 -7.6599711,861.45213 3.5353713,844.95373 C 14.730714,828.45534 41.835227,797.81545 39.478313,787.79857 C 37.121398,777.78168 26.515285,757.74791 16.498399,749.49871 C 6.481514,741.24951 20.033771,752.44485 24.15837,763.6402 C 28.28297,774.83554 37.121398,795.45854 30.050656,799.58314 C 22.979913,803.70774 9.4276567,847.89988 -22.979913,855.55985 C -55.387483,863.21982 -60.101312,874.41516 -80.724311,869.1121 C -101.34731,863.80905 -127.27337,813.13539 -142.59331,817.84922 C -157.91325,822.56305 -172.05474,832.57993 -172.64396,840.23991 C -173.23319,847.89988 -166.16245,863.80905 -158.50248,873.2367 C -150.84251,882.66436 -118.43494,918.6073 -117.84571,927.44573 C -117.25648,936.28416 -109.59651,996.9747 -117.84571,1009.3485 C -126.09491,1021.7223 -137.87948,1015.2408 -142.00408,1011.1162 C -146.12868,1006.9916 -158.50248,1010.527 -158.50248,1018.1869 C -158.50248,1025.8469 -160.27016,1035.2746 -165.57322,1018.7762 C -170.87628,1002.2778 -178.53625,984.6009 -186.19622,985.19013 C -193.85619,985.77936 -186.78545,1001.0993 -193.26696,998.15316 C -199.74848,995.20701 -199.74848,1000.5101 -197.39156,984.6009 C -195.03465,968.69173 -187.37468,953.37179 -202.10539,955.13947 C -216.8361,956.90716 -219.78225,960.44253 -217.42533,946.89027 C -215.06842,933.33802 -192.67773,885.6105 -220.9607,853.79216 C -249.24367,821.97382 -258.67133,781.31705 -251.60059,771.30017 C -244.52985,761.28328 -214.47919,761.87251 -206.81922,734.768 C -199.15925,707.66348 -207.99768,668.7744 -214.47919,667.59594 C -220.9607,666.41748 -221.54993,666.41748 -221.54993,666.41748 z"
       id="path2445" />
    <path
       style="fill:#a05a2c;fill-rule:evenodd;stroke:#000000;stroke-width:2;stroke-linecap:butt;stroke-linejoin:miter;stroke-opacity:1;stroke-miterlimit:4;stroke-dasharray:none"
       d="M 441.64635,44.491879 C 446.22947,44.491879 449.9793,38.242166 453.72913,41.575346 C 457.47896,44.908526 467.4785,49.491649 473.72821,55.324714 C 479.97792,61.157779 492.0607,62.824369 492.0607,62.824369 C 492.0607,62.824369 486.22763,52.824829 494.97723,74.073851 C 503.72683,95.322874 512.05978,106.15571 504.14348,98.656054 C 496.22717,91.156399 484.56104,76.157089 485.39434,71.990614 C 486.22763,67.824139 474.14486,62.407721 469.97838,61.157779 C 465.81191,59.907836 462.47873,55.741361 457.06231,50.324944 C 451.64589,44.908526 441.2297,44.491879 441.64635,44.491879 z"
       id="path2447" />
    <path
       style="fill:#784421;fill-rule:evenodd;stroke:#000000;stroke-width:2;stroke-linecap:butt;stroke-linejoin:miter;stroke-opacity:1;stroke-miterlimit:4;stroke-dasharray:none"
       d="M 463.31202,61.157779 C 460.81214,60.741131 453.31248,61.574426 452.89583,63.657664 C 452.47919,65.740901 454.97907,66.574196 449.9793,73.657204 C 444.97953,80.740211 423.73051,99.072701 417.89744,105.73906 C 412.06438,112.40542 404.98137,114.07201 409.98114,114.07201 C 414.98091,114.07201 419.98068,106.15571 430.81352,106.989 C 441.64635,107.8223 448.31271,110.32218 456.64566,107.40565 C 464.97861,104.48912 487.47758,96.572816 489.56081,92.822989 C 491.64405,89.073161 490.39411,88.656514 490.39411,88.656514 C 490.39411,88.656514 479.97792,95.322874 471.22832,98.239406 C 462.47873,101.15594 455.39572,105.73906 446.64612,104.90577 C 437.89652,104.07247 424.14716,105.73906 426.23039,103.65582 C 428.31363,101.57259 448.72936,81.156859 451.22924,78.240326 C 453.72913,75.323794 456.64566,67.407491 457.06231,65.324254 C 457.47896,63.241016 462.89537,60.741131 463.31202,61.157779 z"
       id="path2449" />
    <path
       style="fill:#28170b;fill-rule:evenodd;stroke:#000000;stroke-width:2;stroke-linecap:butt;stroke-linejoin:miter;stroke-opacity:1;stroke-miterlimit:4;stroke-dasharray:none"
       d="M 448.72936,85.739981 C 451.64589,92.406341 457.47896,96.989464 461.64543,96.572816 C 465.81191,96.156169 484.56104,89.906456 482.89445,84.906686 C 481.22786,79.906916 486.22763,74.907146 479.14463,70.324024 C 472.06162,65.740901 467.89514,61.574426 464.14532,63.657664 C 460.39549,65.740901 462.06208,68.240786 464.14532,69.490729 C 466.22855,70.740671 467.06185,74.490499 464.97861,75.323794 C 462.89537,76.157089 459.14555,74.490499 456.64566,77.407031 C 454.14578,80.323564 449.9793,85.739981 448.72936,85.739981 z"
       id="path2451" />
  </g>
</svg>
