<?xml version="1.0" encoding="UTF-8" standalone="no"?>
<!-- Created with Inkscape (http://www.inkscape.org/) -->
<svg
   xmlns:dc="http://purl.org/dc/elements/1.1/"
   xmlns:cc="http://creativecommons.org/ns#"
   xmlns:rdf="http://www.w3.org/1999/02/22-rdf-syntax-ns#"
   xmlns:svg="http://www.w3.org/2000/svg"
   xmlns="http://www.w3.org/2000/svg"
   xmlns:sodipodi="http://sodipodi.sourceforge.net/DTD/sodipodi-0.dtd"
   xmlns:inkscape="http://www.inkscape.org/namespaces/inkscape"
   width="744.09448819"
   height="1052.3622047"
   id="svg3243"
   sodipodi:version="0.32"
   inkscape:version="0.46"
   inkscape:export-filename="/home/stone/yadog2.png"
   inkscape:export-xdpi="10.125047"
   inkscape:export-ydpi="10.125047"
   sodipodi:docname="yadog3.svg"
   inkscape:output_extension="org.inkscape.output.svg.inkscape">
  <defs
     id="defs3245">
    <inkscape:perspective
       sodipodi:type="inkscape:persp3d"
       inkscape:vp_x="0 : 526.18109 : 1"
       inkscape:vp_y="0 : 1000 : 0"
       inkscape:vp_z="744.09448 : 526.18109 : 1"
       inkscape:persp3d-origin="372.04724 : 350.78739 : 1"
       id="perspective3251" />
  </defs>
  <sodipodi:namedview
     id="base"
     pagecolor="#ffffff"
     bordercolor="#666666"
     borderopacity="1.0"
     gridtolerance="10000"
     guidetolerance="10"
     objecttolerance="10"
     inkscape:pageopacity="0.0"
     inkscape:pageshadow="2"
     inkscape:zoom="0.59964095"
     inkscape:cx="385.50082"
     inkscape:cy="429.76479"
     inkscape:document-units="px"
     inkscape:current-layer="layer1"
     showgrid="false"
     inkscape:window-width="1452"
     inkscape:window-height="1019"
     inkscape:window-x="0"
     inkscape:window-y="25" />
  <metadata
     id="metadata3248">
    <rdf:RDF>
      <cc:Work
         rdf:about="">
        <dc:format>image/svg+xml</dc:format>
        <dc:type
           rdf:resource="http://purl.org/dc/dcmitype/StillImage" />
      </cc:Work>
    </rdf:RDF>
  </metadata>
  <g
     inkscape:label="Layer 1"
     inkscape:groupmode="layer"
     id="layer1">
    <path
       style="fill:#28170b;fill-rule:evenodd;stroke:#000000;stroke-width:2;stroke-linecap:butt;stroke-linejoin:miter;stroke-miterlimit:4;stroke-dasharray:none;stroke-opacity:1;display:inline"
       d="M 878.71476,201.70265 C 878.71476,201.70265 878.71476,207.59493 875.17939,212.30876 C 871.64402,217.02259 853.37793,209.36262 846.30719,218.20105 C 839.23645,227.03948 842.77182,228.80716 829.21956,243.53788 C 815.66731,258.26859 815.07808,250.01939 823.91651,270.64239 C 832.75493,291.26539 839.82568,278.89159 853.96716,288.90847 C 868.10865,298.92536 874.59016,294.21153 879.89322,287.73002 C 885.19628,281.2485 898.1593,268.8747 898.74853,258.26859 C 899.33776,247.66248 891.08856,245.89479 895.21316,241.77019 C 899.33776,237.64559 904.64082,222.91488 901.69467,217.61182 C 898.74853,212.30876 881.07168,201.11342 878.71476,201.70265 z"
       id="path2405" />
    <path
       style="fill:#502d16;fill-rule:evenodd;stroke:#000000;stroke-width:2;stroke-linecap:butt;stroke-linejoin:miter;stroke-miterlimit:4;stroke-dasharray:none;stroke-opacity:1;display:inline"
       d="M 791.50894,240.0025 C 800.93659,251.78708 814.78458,251.79152 814.19535,254.14844 C 813.60612,256.50535 817.41944,265.6084 817.41944,265.6084 C 817.41944,265.6084 803.58701,250.89323 788.85629,259.14243 C 774.12558,267.39163 753.52036,271.5229 767.66184,262.68447 C 781.80333,253.84604 788.74321,253.03527 789.45663,246.48624 C 789.97757,241.70412 789.45442,235.89568 791.50894,240.0025 z"
       id="path2407"
       sodipodi:nodetypes="cscsssc" />
    <path
       style="fill:#a05a2c;fill-opacity:1;fill-rule:evenodd;stroke:#000000;stroke-width:6;stroke-linecap:butt;stroke-linejoin:miter;stroke-miterlimit:4;stroke-dasharray:none;stroke-opacity:1;display:inline"
       d="M 876.35785,199.34573 C 741.42451,141.0121 755.59216,152.07394 733.7907,129.09404 C 711.98924,106.11404 655.26904,81.557801 684.14123,103.9485 C 713.01343,126.3392 717.08299,145.32532 717.08299,145.32532 C 717.08299,145.32532 701.89387,138.09216 783.20741,172.85661 C 864.52095,207.62109 877.5363,199.34573 876.35785,199.34573 z"
       id="path2429"
       sodipodi:nodetypes="csscsc" />
    <path
       style="fill:#a05a2c;fill-opacity:1;fill-rule:evenodd;stroke:#000000;stroke-width:6;stroke-linecap:butt;stroke-linejoin:miter;stroke-miterlimit:4;stroke-dasharray:none;stroke-opacity:1;display:inline"
       d="M 711.96308,90.3385 C 686.62626,54.3955 651.86177,37.8971 651.86177,37.8971 C 651.86177,37.8971 594.7066,9.6953297 548.74677,11.46303 C 502.78697,13.23073 429.56298,23.806373 400.71955,54.421664 C 371.37981,85.56375 362.82032,108.97901 360.46342,149.04651 C 358.10652,189.11409 369.62127,192.86422 372.56747,189.32885 C 375.51357,185.79348 388.47657,102.123 407.33197,76.7862 C 426.18727,51.4494 518.99416,26.062857 552.04122,27.558117 C 604.96169,29.915017 639.00884,36.1294 657.86416,63.8232 C 676.71947,91.5169 712.55231,91.5169 711.96308,90.3385 z"
       id="path2431"
       sodipodi:nodetypes="ccsssssssc" />
    <path
       style="fill:#a05a2c;fill-rule:evenodd;stroke:#000000;stroke-width:6;stroke-linecap:butt;stroke-linejoin:miter;stroke-miterlimit:4;stroke-dasharray:none;stroke-opacity:1;display:inline"
       d="M 887.55319,288.90847 C 857.50253,330.7437 865.75173,325.44064 838.05799,339.58213 C 810.36425,353.72361 747.90602,344.88519 731.40762,339.58213 C 714.90923,334.27907 651.27254,318.3699 638.89874,322.4945 C 626.52494,326.6191 649.82428,302.27485 658.66271,304.63177 C 667.50114,306.98868 772.761,338.00303 793.384,332.69998 C 814.007,327.39692 818.45374,352.43778 856.7536,312.95947 C 895.05345,273.48116 888.14242,290.67616 887.55319,288.90847 z"
       id="path2435"
       sodipodi:nodetypes="cssssssc" />
    <path
       style="fill:#ff69be;fill-opacity:1;fill-rule:evenodd;stroke:#9c0000;stroke-width:3;stroke-linecap:butt;stroke-linejoin:miter;stroke-opacity:1;display:inline;stroke-miterlimit:4;stroke-dasharray:none"
       d="M 644.2018,323.67296 C 513.98227,420.30644 514.57157,420.30644 513.98227,420.30644 C 513.39307,420.30644 508.08997,436.80484 509.85767,459.19552 C 511.62537,481.58621 513.39307,483.35389 513.39307,483.35389 L 733.17531,602.37806 L 795.59921,552.86214 L 784.96693,545.76523 L 734.24639,587.24671 L 518.48138,474.48931 C 518.48138,474.48931 521.92526,468.22591 522.84693,448.72296 C 523.56969,433.42917 521.07923,429.27841 521.07923,429.27841 L 736.12145,548.16903 L 1079.0525,253.55476 L 982.41899,212.89799 L 970.34116,220.58412 L 1057.4135,256.1526 L 736.12145,525.69986 L 538.72713,420.30644 L 661.71623,326.51173 L 644.2018,323.67296 z"
       id="path2437"
       sodipodi:nodetypes="cssccccccscccccccccc" />
    <path
       style="fill:#c87137;fill-rule:evenodd;stroke:#000000;stroke-width:6;stroke-linecap:butt;stroke-linejoin:miter;stroke-miterlimit:4;stroke-dasharray:none;stroke-opacity:1;display:inline"
       d="M 711.37385,594.71809 C 729.05071,648.33789 725.51534,730.82988 714.32,752.04211 C 703.12465,773.25434 703.71388,770.89742 697.23237,777.96817 C 690.75085,785.03891 620.76008,873.47091 620.04343,875.19088 C 614.15114,889.33236 604.72349,936.47064 602.36658,952.96904 C 600.00966,969.46744 592.35864,1027.1313 591.17127,1037.818 C 589.99277,1048.4241 587.04667,1050.1917 605.31272,1070.2255 C 631.42099,1098.8604 634.77414,1089.6701 640.66643,1106.7577 C 646.55871,1123.8453 662.46788,1119.7207 661.28943,1138.576 C 660.11097,1157.4313 653.62946,1181.0005 643.02334,1183.9466 C 632.41723,1186.8927 604.13426,1196.3204 600.59889,1186.3035 C 597.06352,1176.2866 603.54503,1190.4281 588.81437,1189.8389 C 574.08357,1189.2497 556.40677,1188.6604 540.49757,1168.6267 C 524.58837,1148.5929 509.26847,1140.9329 509.85767,1125.613 C 510.44697,1110.293 499.01062,1045.7794 500.88571,1023.2208 C 506.75009,952.66834 485.11281,962.9336 485.11281,962.9336 L 506.91157,937.05987 C 506.91157,937.05987 527.24818,1013.8828 516.60629,1043.1237 C 508.23915,1066.1143 522.84693,1122.6407 523.43613,1129.7114 C 524.02533,1136.7822 561.14673,1177.3315 565.72708,1174.0109 C 571.45167,1169.8608 579.38667,1183.3574 580.56517,1183.3574 C 581.74357,1183.3574 597.78629,1170.5829 603.08935,1172.3506 C 608.3924,1174.1183 629.47109,1186.3035 638.30951,1177.4651 C 647.14794,1168.6267 655.13005,1141.2812 648.64854,1134.2104 C 642.16702,1127.1397 626.7397,1114.4438 625.80217,1103.9189 C 625.35549,1098.9044 580.00203,1052.5487 579.14572,1048.0758 C 577.8825,1041.4774 565.38416,952.42398 602.39546,869.80661 C 605.90297,861.97707 675.30009,761.20268 684.72775,746.47196 C 694.15541,731.74125 690.70125,677.79932 689.52279,670.13934 C 688.34433,662.47937 666.22345,577.84794 662.68808,571.95565 C 658.34756,564.72144 711.37385,595.30732 711.37385,594.71809 z"
       id="path2439"
       sodipodi:nodetypes="cssssssssssssssccsssssssssssssc" />
    <path
       style="fill:#deaa87;fill-rule:evenodd;stroke:#000000;stroke-width:6;stroke-linecap:butt;stroke-linejoin:miter;stroke-miterlimit:4;stroke-dasharray:none;stroke-opacity:1;display:inline"
       d="M 495.12697,941.18447 C 409.68887,990.09044 422.54448,977.66159 406.74267,997.16119 C 386.16781,1022.5508 350.76597,1074.3501 380.81667,1139.7545 C 410.86727,1205.1588 438.56107,1218.1219 436.20417,1238.7449 C 433.84717,1259.3678 447.39947,1272.3309 444.45337,1280.5801 C 441.50717,1288.8293 425.59797,1300.0246 423.24107,1294.7216 C 420.88417,1289.4185 434.43647,1298.2569 420.88417,1306.5061 C 407.33197,1314.7553 403.20737,1328.3076 384.94127,1318.2907 C 366.67517,1308.2738 358.42597,1294.1323 359.60437,1288.24 C 360.78287,1282.3478 354.89057,1301.7923 350.76597,1300.0246 C 346.64137,1298.2569 301.85997,1277.6339 297.73537,1260.5463 C 293.61077,1243.4587 304.80617,1219.8895 291.25387,1205.1588 C 277.70167,1190.4281 243.52637,1174.5189 244.11567,1129.1483 C 244.70487,1083.7778 272.39857,1012.4811 247.65097,997.16119 C 222.90337,981.84124 208.17267,997.16119 196.38807,952.96905 C 184.60357,908.7769 213.47577,879.31548 232.92027,869.29859 C 252.36487,859.28171 243.52637,860.46016 227.02797,877.54779 C 210.52957,894.63542 211.35699,916.41072 212.85767,933.5245 C 214.12369,947.9622 196.97737,973.59204 217.01107,980.07356 C 237.04487,986.55507 285.51866,996.65045 288.46476,1018.4519 C 291.41086,1040.2534 246.47257,1104.4007 250.59717,1128.5591 C 254.72177,1152.7175 309.75019,1172.8293 320.49785,1205.6407 C 328.90627,1231.3107 306.57387,1236.9772 305.98457,1252.8863 C 305.39537,1268.7955 318.94767,1272.3309 333.08917,1281.7585 C 347.23057,1291.1862 339.32972,1229.5346 357.59582,1253.693 C 375.86192,1277.8514 387.88737,1317.7015 392.01197,1315.3446 C 396.13657,1312.9876 425.00877,1307.0954 420.29497,1298.2569 C 415.58117,1289.4185 396.53998,1264.8072 406.55678,1267.7533 C 416.57368,1270.6995 436.20417,1287.0616 435.61487,1281.7585 C 435.02567,1276.4555 404.10111,1240.714 411.51154,1233.8974 C 420.85801,1225.3 370.79977,1165.6805 366.08597,1133.2729 C 361.37207,1100.8654 338.5023,1055.3351 365.0176,1011.143 C 391.5329,966.95082 414.96033,955.19514 452.67093,942.23211 C 490.38153,929.26908 495.71617,941.18447 495.12697,941.18447 z"
       id="path2441"
       sodipodi:nodetypes="cssssssssssssssssssssssssssssssssc" />
    <path
       style="fill:#c87137;fill-rule:evenodd;stroke:#000000;stroke-width:6;stroke-linecap:butt;stroke-linejoin:miter;stroke-miterlimit:4;stroke-dasharray:none;stroke-opacity:1;display:inline"
       d="M 263.56017,403.21881 C 261.20327,403.80804 75.596271,462.14167 -1.0034286,546.40135 C -77.603129,630.66103 -71.710829,695.47617 -90.566229,703.13614 C -109.42153,710.79611 -160.1665,706.85978 -172.54742,715.42873 C -187.6788,725.90129 -213.0734,751.82735 -229.62413,777.37894 C -245.94869,802.58136 -268.51323,849.26482 -233.74873,862.81708 C -198.98423,876.36933 -146.76583,898.00836 -150.13603,873.42319 C -154.14446,844.18223 -163.37283,840.73891 -170.6778,847.92938 C -185.18429,862.20848 -233.2146,851.78417 -228.5007,832.92885 C -223.7868,814.07356 -218.3163,793.81973 -205.30601,782.67927 C -186.6655,766.71777 -180.36714,745.07331 -163.46807,736.39731 C -154.68122,731.88614 -98.482197,744.3968 -68.230594,721.2398 C -33.59311,694.7255 -48.411583,618.92879 16.992818,561.18439 C 82.397217,503.44 226.3355,429.52264 237.35884,422.07685 C 253.43574,411.2176 264.14937,404.39727 263.56017,403.21881 z"
       id="path2443"
       sodipodi:nodetypes="csssssssssssssc" />
    <path
       style="fill:#c87137;fill-rule:evenodd;stroke:#000000;stroke-width:6;stroke-linecap:butt;stroke-linejoin:miter;stroke-miterlimit:4;stroke-dasharray:none;stroke-opacity:1;display:inline"
       d="M -79.960029,762.64822 C -68.175529,803.30499 -68.764729,818.62494 -86.441629,835.12334 C -104.11843,851.62174 -121.79533,846.90791 -120.61683,870.47705 C -119.43843,894.04619 -109.42153,935.88142 -98.226129,950.61213 C -87.030829,965.34284 -74.657029,970.6459 -78.781629,1013.0704 C -82.906229,1055.4948 -85.852329,1054.9056 -84.084629,1057.2625 C -82.317029,1059.6194 -69.353929,1069.0471 -65.229329,1062.5656 C -61.104729,1056.084 -70.532429,1090.2593 -60.515529,1099.6869 C -50.498629,1109.1146 -46.374029,1118.5422 -43.427929,1111.4715 C -40.481729,1104.4007 -49.320229,1083.1886 -43.427929,1092.027 C -37.535629,1100.8654 -34.589529,1129.1483 -15.144929,1133.8622 C 4.2995714,1138.576 -12.198829,1107.3469 -0.41422857,1113.8284 C 11.370371,1120.3099 13.138071,1137.9868 23.154871,1117.3638 C 33.171771,1096.7408 32.582571,1084.9562 31.993371,1054.9056 C 31.404071,1024.8549 33.761071,1025.4442 27.868771,1014.2488 C 21.976471,1003.0535 -26.340329,945.8983 -21.626429,937.6491 C -16.912629,929.3999 -19.858729,918.79379 -1.5927286,926.45376 C 16.673371,934.11373 39.064071,971.23513 62.633271,973.00282 C 86.202371,974.7705 133.92987,957.68287 145.12527,941.18447 C 156.32057,924.68608 183.42507,894.04619 181.06817,884.02931 C 178.71127,874.01242 168.10517,853.97865 158.08827,845.72945 C 148.07137,837.48025 155.8126,851.16605 159.9372,862.3614 C 164.0618,873.55674 163.76852,889.19882 158.35802,900.7948 C 154.89688,908.21286 144.15365,925.22231 115.28936,941.82876 C 101.97528,949.48873 83.148877,956.5333 62.525877,951.23024 C 41.902877,945.92719 6.014942,886.952 -9.3049576,891.66583 C -24.624958,896.37966 -44.577528,914.69807 -45.166728,922.35805 C -45.755928,930.01802 -24.572629,960.03979 -16.912629,969.46744 C -9.2526286,978.8951 11.53273,1018.1586 12.12203,1026.9971 C 12.71123,1035.8355 31.993371,1093.2054 23.744171,1105.5792 C 15.494971,1117.953 -1.270546,1084.0765 -5.395146,1079.9519 C -9.519746,1075.8273 -16.912629,1106.7577 -16.912629,1114.4176 C -16.912629,1122.0776 -18.680329,1131.5053 -23.983329,1115.0069 C -29.286429,1098.5085 -30.305206,1061.7381 -37.965106,1062.3274 C -45.625106,1062.9166 -45.195629,1097.33 -51.677129,1094.3839 C -58.158629,1091.4378 -58.158629,1096.7408 -55.801729,1080.8316 C -53.444829,1064.9225 -32.502383,1041.301 -47.233083,1043.0687 C -61.963783,1044.8364 -78.192429,1056.6733 -75.835429,1043.121 C -73.478529,1029.5688 -40.295841,972.70956 -68.578841,940.89122 C -96.861842,909.07288 -117.08143,877.54779 -110.01073,867.53091 C -102.94003,857.51402 -53.795812,858.9334 -46.135812,831.82889 C -38.475912,804.72437 -66.407829,765.00514 -72.889329,763.82668 C -79.370829,762.64822 -79.960029,762.64822 -79.960029,762.64822 z"
       id="path2445"
       sodipodi:nodetypes="csssssssssssssssssssssssssssssssssssssssssc" />
    <path
       style="fill:#a05a2c;fill-rule:evenodd;stroke:#000000;stroke-width:6;stroke-linecap:butt;stroke-linejoin:miter;stroke-miterlimit:4;stroke-dasharray:none;stroke-opacity:1;display:inline"
       d="M 583.23617,140.7226 C 583.66861,135.74168 594.46266,142.7496 595.31898,137.8061 C 595.7482,135.32823 611.55881,139.91133 617.80852,145.74443 C 624.05823,151.57743 644.44254,152.41388 644.44254,152.41388 C 644.44254,152.41388 634.4587,151.54606 643.2083,172.79505 C 651.9579,194.04407 653.64963,202.38645 645.73333,194.88679 C 637.81702,187.38714 626.15089,172.38783 626.98419,168.22135 C 627.81748,164.05488 615.73471,158.6385 611.56823,157.3885 C 607.40176,156.1386 604.06858,151.9721 598.65216,146.5557 C 593.23574,141.1393 582.81957,140.7226 583.23617,140.7226 z"
       id="path2447"
       sodipodi:nodetypes="csscsssssc" />
    <path
       style="fill:#784421;fill-rule:evenodd;stroke:#000000;stroke-width:6;stroke-linecap:butt;stroke-linejoin:miter;stroke-miterlimit:4;stroke-dasharray:none;stroke-opacity:1;display:inline"
       d="M 604.90187,157.3885 C 602.40199,156.9719 594.90231,157.8052 594.48568,159.8884 C 594.06904,161.97164 588.5489,159.48097 587.75361,170.76845 C 587.14426,179.41689 558.67915,191.15268 552.84605,197.81904 C 547.01305,204.4854 546.57127,210.30275 551.57097,210.30275 C 556.57077,210.30275 561.57057,207.36737 572.40337,208.20066 C 583.23617,209.03396 591.56288,211.53384 599.89582,208.61731 C 608.22877,205.70078 629.06743,192.80356 631.15066,189.05373 C 633.2339,185.3039 631.98396,184.88725 631.98396,184.88725 C 631.98396,184.88725 621.56777,191.55361 612.81817,194.47015 C 604.06858,197.38668 596.98557,201.9698 588.23597,201.13651 C 579.48637,200.30321 565.73697,201.9698 567.82027,199.88656 C 569.90347,197.80333 590.31917,177.3876 592.81909,174.47107 C 595.31898,171.55453 598.23551,163.63823 598.65216,161.55499 C 599.06881,159.4718 604.48522,156.9719 604.90187,157.3885 z"
       id="path2449"
       sodipodi:nodetypes="cssssssscsssssc" />
    <path
       style="fill:#28170b;fill-rule:evenodd;stroke:#000000;stroke-width:2;stroke-linecap:butt;stroke-linejoin:miter;stroke-miterlimit:4;stroke-dasharray:none;stroke-opacity:1;display:inline"
       d="M 590.31917,181.97072 C 593.23574,188.63708 599.06881,193.2202 603.23528,192.80356 C 607.40176,192.38691 626.15089,186.1372 624.4843,181.13743 C 622.81771,176.13766 627.81748,171.13789 620.73448,166.55476 C 613.65147,161.97164 609.48499,157.8052 605.73517,159.8884 C 601.98534,161.97164 603.65193,164.47153 605.73517,165.72147 C 607.8184,166.97141 608.6517,170.72124 606.56846,171.55453 C 604.48522,172.38783 600.7354,170.72124 598.23551,173.63777 C 595.73563,176.5543 591.56915,181.97072 590.31917,181.97072 z"
       id="path2451" />
    <path
       style="fill:#a05a2c;fill-opacity:1;fill-rule:evenodd;stroke:#000000;stroke-width:6;stroke-linecap:butt;stroke-linejoin:miter;stroke-miterlimit:4;stroke-dasharray:none;stroke-opacity:1;display:inline"
       d="M 368.44287,197.57805 C 336.6191,254.07094 235.01279,348.2058 245.61899,408.89634 C 256.22509,469.58688 259.30201,456.30171 292.88801,485.76314 C 326.47411,515.22457 361.37207,518.11838 370.79977,501.61998 C 380.22737,485.12158 387.29817,472.15855 375.51357,435.62638 C 363.72897,399.09421 375.51357,293.03307 390.24427,275.35622 C 404.97497,257.67936 334.53742,309.8825 336.30512,362.91306 C 338.07272,415.94363 357.83677,489.83541 333.08917,482.17544 C 308.34157,474.51547 267.63244,444.17156 268.22164,401.15787 C 268.81094,358.14419 305.31414,301.65674 332.41864,279.26606 C 359.52324,256.87537 369.03207,197.57805 368.44287,197.57805 z"
       id="path2433"
       sodipodi:nodetypes="csssssssssc" />
    <flowRoot
       xml:space="preserve"
       id="flowRoot3816"
       style="font-size:48px;font-style:normal;font-variant:normal;font-weight:normal;font-stretch:normal;text-align:start;line-height:125%;writing-mode:lr-tb;text-anchor:start;fill:#ce4800;fill-opacity:1;stroke:#000000;stroke-width:2.4844923;stroke-linecap:butt;stroke-linejoin:miter;stroke-miterlimit:4;stroke-dasharray:none;stroke-opacity:1;font-family:Bitstream Vera Sans;-inkscape-font-specification:Bitstream Vera Sans"
       transform="matrix(1.1146667,0.583201,-1.8210122,1.4592492,1164.83,307.88659)"><flowRegion
         id="flowRegion3818"><rect
           id="rect3820"
           width="228.47006"
           height="73.377251"
           x="-253.48503"
           y="125.14064"
           style="font-size:48px;font-style:normal;font-variant:normal;font-weight:normal;font-stretch:normal;text-align:start;line-height:125%;writing-mode:lr-tb;text-anchor:start;fill:#ce4800;fill-opacity:1;stroke:#000000;stroke-width:2.4844923;stroke-miterlimit:4;stroke-dasharray:none;stroke-opacity:1;font-family:Bitstream Vera Sans;-inkscape-font-specification:Bitstream Vera Sans" /></flowRegion><flowPara
         id="flowPara3822">YaDoG</flowPara></flowRoot>  </g>
</svg>
